<?xml version="1.0" encoding="UTF-8" standalone="no"?>
<!-- Created with Inkscape (http://www.inkscape.org/) -->

<svg
   xmlns:dc="http://purl.org/dc/elements/1.1/"
   xmlns:cc="http://creativecommons.org/ns#"
   xmlns:rdf="http://www.w3.org/1999/02/22-rdf-syntax-ns#"
   xmlns:svg="http://www.w3.org/2000/svg"
   xmlns="http://www.w3.org/2000/svg"
   xmlns:xlink="http://www.w3.org/1999/xlink"
   xmlns:sodipodi="http://sodipodi.sourceforge.net/DTD/sodipodi-0.dtd"
   xmlns:inkscape="http://www.inkscape.org/namespaces/inkscape"
   id="svg2"
   version="1.1"
   inkscape:version="0.48.3.1 r9886"
   width="90"
   height="91.25"
   xml:space="preserve"
   sodipodi:docname="ATlogometstudenthat.svg"
   inkscape:export-filename="/home/martijn/Projects/ExamTrainer/res/drawable-xlarge/student_hat.png"
   inkscape:export-xdpi="833.82556"
   inkscape:export-ydpi="833.82556"><metadata
     id="metadata8"><rdf:RDF><cc:Work
         rdf:about=""><dc:format>image/svg+xml</dc:format><dc:type
           rdf:resource="http://purl.org/dc/dcmitype/StillImage" /><dc:title /></cc:Work></rdf:RDF></metadata><defs
     id="defs6"><linearGradient
       id="linearGradient3673-3"><stop
         style="stop-color:#000000;stop-opacity:1;"
         offset="0"
         id="stop3675-2" /><stop
         style="stop-color:#797979;stop-opacity:1;"
         offset="1"
         id="stop3677-2" /></linearGradient><linearGradient
       id="linearGradient3681-1"><stop
         style="stop-color:#6cbb73;stop-opacity:1;"
         offset="0"
         id="stop3683-4" /><stop
         style="stop-color:#7ccf83;stop-opacity:1;"
         offset="1"
         id="stop3685-2" /></linearGradient><linearGradient
       id="linearGradient3691-2-2"><stop
         style="stop-color:#ffffff;stop-opacity:1;"
         offset="0"
         id="stop3693-7-4" /><stop
         style="stop-color:#919191;stop-opacity:0.10144927;"
         offset="1"
         id="stop3695-6-5" /></linearGradient><linearGradient
       id="linearGradient3681-4"><stop
         id="stop3683-9"
         offset="0"
         style="stop-color:#6cbb73;stop-opacity:1;" /><stop
         id="stop3685-4"
         offset="1"
         style="stop-color:#7ccf83;stop-opacity:1;" /></linearGradient><linearGradient
       id="linearGradient3800-5"><stop
         style="stop-color:#28292b;stop-opacity:1;"
         offset="0"
         id="stop3802-1" /><stop
         style="stop-color:#1a2334;stop-opacity:1;"
         offset="1"
         id="stop3804-7" /></linearGradient><linearGradient
       id="linearGradient3759"><stop
         id="stop3761"
         offset="0"
         style="stop-color:#000000;stop-opacity:1;" /><stop
         style="stop-color:#383838;stop-opacity:1;"
         offset="0.76854515"
         id="stop3767" /><stop
         id="stop3769"
         offset="0.91430372"
         style="stop-color:#262626;stop-opacity:1;" /><stop
         id="stop3763"
         offset="1"
         style="stop-color:#000000;stop-opacity:1;" /></linearGradient><inkscape:perspective
       sodipodi:type="inkscape:persp3d"
       inkscape:vp_x="0 : 0.5 : 1"
       inkscape:vp_y="0 : 1000 : 0"
       inkscape:vp_z="1 : 0.5 : 1"
       inkscape:persp3d-origin="0.5 : 0.33333333 : 1"
       id="perspective4186" /><linearGradient
       id="linearGradient3691-2"><stop
         style="stop-color:#ffffff;stop-opacity:1;"
         offset="0"
         id="stop3693-7" /><stop
         style="stop-color:#919191;stop-opacity:0.10144927;"
         offset="1"
         id="stop3695-6" /></linearGradient><linearGradient
       id="linearGradient4026"><stop
         id="stop4028"
         offset="0"
         style="stop-color:#71c97c;stop-opacity:1;" /><stop
         id="stop4030"
         offset="1"
         style="stop-color:#00b418;stop-opacity:1;" /></linearGradient><linearGradient
       id="linearGradient3649"><stop
         id="stop3651"
         offset="0"
         style="stop-color:#71c97c;stop-opacity:1;" /><stop
         id="stop3653"
         offset="1"
         style="stop-color:#00b418;stop-opacity:1;" /></linearGradient><linearGradient
       id="linearGradient3673"><stop
         id="stop3675"
         offset="0"
         style="stop-color:#000000;stop-opacity:1;" /><stop
         id="stop3677"
         offset="1"
         style="stop-color:#797979;stop-opacity:1;" /></linearGradient><linearGradient
       id="linearGradient4011"><stop
         id="stop4013"
         offset="0"
         style="stop-color:#6cbb73;stop-opacity:1;" /><stop
         id="stop4015"
         offset="1"
         style="stop-color:#7ccf83;stop-opacity:1;" /></linearGradient><linearGradient
       id="linearGradient3691"><stop
         id="stop3693"
         offset="0"
         style="stop-color:#ffffff;stop-opacity:1;" /><stop
         id="stop3695"
         offset="1"
         style="stop-color:#919191;stop-opacity:1;" /></linearGradient><linearGradient
       id="linearGradient3681"><stop
         id="stop3683"
         offset="0"
         style="stop-color:#6cbb73;stop-opacity:1;" /><stop
         id="stop3685"
         offset="1"
         style="stop-color:#7ccf83;stop-opacity:1;" /></linearGradient><linearGradient
       id="linearGradient3800"><stop
         id="stop3802"
         offset="0"
         style="stop-color:#28292b;stop-opacity:1;" /><stop
         id="stop3804"
         offset="1"
         style="stop-color:#1a2334;stop-opacity:1;" /></linearGradient><linearGradient
       id="linearGradient3759-7"><stop
         id="stop3761-4"
         offset="0"
         style="stop-color:#454545;stop-opacity:1;" /><stop
         style="stop-color:#1c1c1c;stop-opacity:1;"
         offset="0.38427258"
         id="stop3850" /><stop
         style="stop-color:#383838;stop-opacity:1;"
         offset="0.76854515"
         id="stop3767-0" /><stop
         id="stop3769-9"
         offset="0.91430372"
         style="stop-color:#262626;stop-opacity:1;" /><stop
         id="stop3763-4"
         offset="1"
         style="stop-color:#000000;stop-opacity:1;" /></linearGradient><inkscape:perspective
       sodipodi:type="inkscape:persp3d"
       inkscape:vp_x="0 : 0.5 : 1"
       inkscape:vp_y="0 : 1000 : 0"
       inkscape:vp_z="1 : 0.5 : 1"
       inkscape:persp3d-origin="0.5 : 0.33333333 : 1"
       id="perspective3987" /><inkscape:perspective
       id="perspective3977"
       inkscape:persp3d-origin="32 : 21.333333 : 1"
       inkscape:vp_z="64 : 32 : 1"
       inkscape:vp_y="0 : 1000 : 0"
       inkscape:vp_x="0 : 32 : 1"
       sodipodi:type="inkscape:persp3d" /><linearGradient
       inkscape:collect="always"
       xlink:href="#linearGradient3673-3"
       id="linearGradient3752"
       gradientUnits="userSpaceOnUse"
       gradientTransform="matrix(0.10404179,0,0,-0.09071927,29.529744,110.31271)"
       x1="44.285713"
       y1="451.68445"
       x2="80.714287"
       y2="451.68445" /><linearGradient
       inkscape:collect="always"
       xlink:href="#linearGradient3691"
       id="linearGradient3760"
       gradientUnits="userSpaceOnUse"
       gradientTransform="matrix(0.14161323,0,0,0.13017738,-0.210165,-112.33707)"
       x1="172.82471"
       y1="459.14618"
       x2="187.46178"
       y2="459.14618" /><linearGradient
       inkscape:collect="always"
       xlink:href="#linearGradient3800-5"
       id="linearGradient3766"
       gradientUnits="userSpaceOnUse"
       gradientTransform="matrix(0.12988412,0,0,-0.12988412,-15.851714,110.73593)"
       x1="153.78572"
       y1="344.50504"
       x2="633.35718"
       y2="344.50504" /><linearGradient
       inkscape:collect="always"
       xlink:href="#linearGradient3759"
       id="linearGradient3769"
       gradientUnits="userSpaceOnUse"
       gradientTransform="matrix(0.12988412,0,0,-0.12988412,-15.555846,132.85667)"
       x1="282.82205"
       y1="567.18835"
       x2="513.76422"
       y2="567.18835" /><linearGradient
       inkscape:collect="always"
       xlink:href="#linearGradient3691"
       id="linearGradient3058"
       gradientUnits="userSpaceOnUse"
       gradientTransform="matrix(0.14161323,0,0,0.13017738,-0.210165,-112.33707)"
       x1="172.82471"
       y1="459.14618"
       x2="187.46178"
       y2="459.14618" /></defs><sodipodi:namedview
     pagecolor="#ffffff"
     bordercolor="#666666"
     borderopacity="1"
     objecttolerance="10"
     gridtolerance="10"
     guidetolerance="10"
     inkscape:pageopacity="0"
     inkscape:pageshadow="2"
     inkscape:window-width="1280"
     inkscape:window-height="937"
     id="namedview4"
     showgrid="false"
     inkscape:zoom="9.1726027"
     inkscape:cx="43.347025"
     inkscape:cy="63.068249"
     inkscape:window-x="0"
     inkscape:window-y="27"
     inkscape:window-maximized="1"
     inkscape:current-layer="g10" /><g
     id="g10"
     inkscape:groupmode="layer"
     inkscape:label="ink_ext_XXXXXX"
     transform="matrix(1.25,0,0,-1.25,0,91.25)"><path
       inkscape:connector-curvature="0"
       style="fill:url(#linearGradient3769);fill-opacity:1;fill-rule:nonzero;stroke:#d3d3d3;stroke-width:0.23379146;stroke-miterlimit:4;stroke-opacity:0.11872146;stroke-dasharray:none"
       d="m 21.295145,69.775389 28.184855,0 1.577071,-14.739816 C 50.856298,52.520516 50.759853,52.43894 49.2773,51.320491 47.454132,50.237621 45.245241,49.665282 43.234456,49.256849 38.190055,48.232223 32.617539,48.239117 25.89284,50.496458 c -2.191681,0.688943 -3.168717,3.710986 -3.020624,4.952403 l -1.577071,14.326528 z"
       id="rect3761-0"
       sodipodi:nodetypes="ccccsccc" /><path
       inkscape:connector-curvature="0"
       style="fill:url(#linearGradient3766);fill-opacity:1;stroke:none"
       d="M 4.1875514,68.21678 34.617545,74.896534 66.346382,68.773425 35.730838,57.083855 4.1875514,68.21678 z"
       id="rect2830-2"
       sodipodi:nodetypes="ccccc" /><path
       inkscape:connector-curvature="0"
       style="fill:#373737;fill-opacity:1;stroke:none"
       d="m 37.927401,69.209911 c -1.101219,-0.602105 -3.407688,0.539024 -3.779584,0.05859 -0.03895,-0.05032 -5.19e-4,-0.335202 0.0052,-0.419654 0.908155,-0.66367 2.660789,-0.675837 3.728332,-0.0083 l 0.04601,0.369292 3e-6,0 10e-7,0 1e-6,0 -3e-6,0 z"
       id="path3605-7-8"
       sodipodi:nodetypes="csccccccc" /><path
       inkscape:connector-curvature="0"
       style="fill:#007fff;fill-opacity:1;stroke:none"
       d="m 35.313352,69.237298 0.939683,-0.278324 C 31.514102,67.743516 18.981656,66.52528 16.663963,64.257598 15.966071,63.560993 16.630429,60.405292 16.408076,58.484939 l -1.101782,-0.0061 c 0.151506,1.877805 -0.328538,4.669474 0.164599,5.749382 0.537604,1.100687 2.762993,2.533604 19.842459,5.009134 z"
       id="rect3617-6"
       sodipodi:nodetypes="ccccccc" /><g
       id="g3054"
       transform="matrix(0.99026809,-0.13917311,0.13917311,0.99026809,-7.8306309,2.6680114)"><path
         sodipodi:nodetypes="ccccc"
         id="rect3614-4"
         d="m 15.702555,54.170695 1.672505,0.04466 c 0.945805,-3.84423 2.672931,-9.187186 2.146742,-10.057464 -0.671668,-1.433859 -3.84165,-2.039147 -4.589045,-0.40365 0.04314,3.092516 0.89598,6.299364 0.769798,10.416453 z"
         style="fill:#007fff;fill-opacity:1;fill-rule:nonzero;stroke:none"
         inkscape:connector-curvature="0" /><rect
         transform="matrix(0.99011313,0.14027113,0.16668964,-0.98600941,0,0)"
         y="-54.161041"
         x="24.334906"
         height="3.1888514"
         width="1.931188"
         id="rect3612-5"
         style="fill:url(#linearGradient3058);fill-opacity:1;fill-rule:nonzero;stroke:none" /></g><path
       inkscape:connector-curvature="0"
       style="fill:#424345;fill-opacity:1;stroke:none"
       d="m 37.695902,69.674901 c 3.479992,1.152817 7.093959,2.131307 11.365441,2.066445 0.190959,0.0454 0.514142,-0.302986 -0.183684,-0.321447 -3.764261,-0.150032 -7.28926,-1.177355 -10.88327,-1.951643 -0.453794,-0.153177 -0.574309,0.122964 -0.298487,0.206645 z"
       id="rect3723-0"
       sodipodi:nodetypes="ccccc" /><path
       inkscape:connector-curvature="0"
       style="fill:#424345;fill-opacity:1;stroke:none"
       d="m 37.758284,68.883404 c 4.119683,-0.890352 8.268799,-2.025016 12.451426,-4.539036 0.215517,-0.066 0.329109,-0.58607 -0.371361,-0.203264 -3.808329,2.01652 -7.898371,3.053221 -11.907158,4.37253 -0.538893,0.113367 -0.494889,0.447724 -0.172907,0.36977 z"
       id="rect3723-1-9"
       sodipodi:nodetypes="ccccc" /><path
       inkscape:connector-curvature="0"
       style="fill:#424345;fill-opacity:1;stroke:none"
       d="m 35.361545,69.535717 c -4.066126,1.122657 -8.302635,2.117005 -13.387209,2.334346 -0.224251,0.04761 -0.630687,-0.205345 0.198133,-0.263642 4.46769,-0.354029 8.595291,-1.381092 12.820983,-2.214031 0.530047,-0.148631 0.69086,0.06038 0.368093,0.143327 z"
       id="rect3723-1-2-0"
       sodipodi:nodetypes="ccccc" /><path
       sodipodi:type="arc"
       style="fill:#007fff;fill-opacity:1;fill-rule:nonzero;stroke:none"
       id="path3610-0"
       sodipodi:cx="242.94168"
       sodipodi:cy="408.89502"
       sodipodi:rx="11.616755"
       sodipodi:ry="11.616755"
       d="m 254.55844,408.89502 c 0,6.41576 -5.201,11.61675 -11.61676,11.61675 -6.41576,0 -11.61675,-5.20099 -11.61675,-11.61675 0,-6.41576 5.20099,-11.61676 11.61675,-11.61676 6.41576,0 11.61676,5.201 11.61676,11.61676 z"
       transform="matrix(0.12988412,0,0,-0.12988412,-15.589309,110.60473)" /><path
       inkscape:connector-curvature="0"
       style="fill:url(#linearGradient3752);fill-opacity:1;stroke:none"
       d="m 37.927403,69.209942 c -0.847478,-0.609171 -2.92205,-0.58883 -3.790094,0 0,0.429454 0.848441,0.777594 1.895047,0.777594 1.046605,0 1.895047,-0.34814 1.895047,-0.777594 z"
       id="path3605-6"
       sodipodi:nodetypes="ccsc" /><path
       inkscape:connector-curvature="0"
       style="fill:#000000;fill-opacity:1;stroke:none"
       d="m 38.435925,69.300098 c 3.479991,1.152818 7.093958,2.131308 11.36544,2.066444 0.190959,0.04541 0.514143,-0.302986 -0.183683,-0.321446 -3.764262,-0.150031 -7.289261,-1.177355 -10.88327,-1.951643 -0.453794,-0.153177 -0.57431,0.122964 -0.298487,0.206645 z"
       id="rect3723-8-1"
       sodipodi:nodetypes="ccccc" /><path
       inkscape:connector-curvature="0"
       style="fill:#000000;fill-opacity:1;stroke:none"
       d="m 37.170757,68.577641 c 4.164402,-0.91103 8.357573,-2.067789 12.578966,-4.611388 0.217779,-0.06718 0.330561,-0.59047 -0.37656,-0.202912 -3.844751,2.041999 -7.978557,3.100045 -12.028991,4.441891 -0.544757,0.116056 -0.498858,0.452026 -0.173415,0.372409 z"
       id="rect3723-8-8-3"
       sodipodi:nodetypes="ccccc" /><path
       inkscape:connector-curvature="0"
       style="fill:#000000;fill-opacity:1;stroke:none"
       d="m 21.239914,71.979031 c 4.210378,-0.354504 8.476009,-0.900107 12.921078,-2.53592 0.222319,-0.03394 0.390842,-0.436386 -0.349536,-0.192721 -4.01845,1.273465 -8.214692,1.746473 -12.359656,2.450353 -0.550429,0.04391 -0.541842,0.312627 -0.211886,0.278288 z"
       id="rect3723-8-8-1-8"
       sodipodi:nodetypes="ccccc" /><path
       inkscape:connector-curvature="0"
       id="path14"
       style="fill:#0080ff;fill-opacity:1;fill-rule:nonzero;stroke:none"
       d="m 39.981598,52.867136 c 0,1.88785 -1.530382,3.418233 -3.418233,3.418233 -1.887851,0 -3.418266,-1.530383 -3.418266,-3.418233 0,-1.887851 1.530415,-3.418267 3.418266,-3.418267 1.887851,0 3.418233,1.530416 3.418233,3.418267 z m -3.153902,1.12538 c -0.01788,-0.0021 -0.02916,-0.0052 -0.04397,-0.0087 -0.168162,-0.03498 -0.330546,-0.117679 -0.442097,-0.26467 -0.04251,-0.06394 -0.08179,-0.129101 -0.111667,-0.198039 -0.114852,-0.284186 -0.181406,-0.594306 -0.180342,-0.920759 -0.0059,-0.06667 0.0087,-0.125325 0.0094,-0.189606 0.01755,-0.09322 0.02632,-0.203944 0.107437,-0.265802 0.04102,-0.03158 0.099,-0.004 0.124978,0.01754 0.125811,0.128503 0.190631,0.317314 0.265958,0.483435 0.06985,0.160564 0.127736,0.325319 0.173535,0.495071 0.06666,0.269132 0.122819,0.535091 0.143923,0.847059 4.74e-4,0.0059 -0.0019,0.01024 -0.0019,0.01024 0,0 -0.03335,-0.0047 -0.04532,-0.0057 M 37.9557,50.705839 c -0.320295,-0.171717 -0.645576,-0.278582 -0.938417,-0.314236 -0.247612,-0.04618 -0.38443,-0.01975 -0.563223,-0.01494 -0.30286,0.04194 -0.599108,0.102887 -0.867215,0.236644 -0.218309,0.110303 -0.437519,0.239183 -0.618927,0.418159 -0.100019,0.09389 -0.188007,0.208289 -0.267311,0.316209 -0.159615,0.218532 -0.245765,0.409504 -0.333946,0.681579 -0.07385,0.228369 -0.09764,0.474702 -0.121124,0.71853 -0.0098,0.215811 0.01461,0.421828 0.04818,0.628489 0.03112,0.192212 0.145054,0.472196 0.235288,0.64732 0,0 0.242124,0.492805 0.681841,0.839993 0,0 0.433549,0.368467 1.009289,0.472274 0.348543,0.07646 0.60663,0.06209 0.946626,0.0018 0.45269,-0.08042 0.794989,-0.378487 0.843732,-0.427955 0.147446,-0.15005 0.22005,-0.247273 0.31406,-0.377276 0.0094,-0.03132 0.03448,-0.05604 0.04794,-0.08531 0.03714,-0.05915 0.05812,-0.125135 0.08671,-0.188475 0.03317,-0.09321 0.06435,-0.186876 0.08671,-0.284855 0.0146,-0.04489 0.01787,-0.09401 0.02757,-0.140602 0.0013,-0.05456 0.01516,-0.103573 0.01652,-0.158027 0.02417,-0.342301 -0.02949,-0.698936 -0.161434,-1.000286 -0.0326,-0.09072 -0.08754,-0.171949 -0.131522,-0.257749 -0.01913,-0.02016 -0.0247,-0.0481 -0.0442,-0.06961 -0.109025,-0.165791 -0.276888,-0.323131 -0.440589,-0.427964 -0.10188,-0.06201 -0.211165,-0.10459 -0.325892,-0.134919 -0.08682,-0.01517 -0.202238,-0.02016 -0.293072,-0.0057 -0.112461,0.013 -0.229228,0.0948 -0.280847,0.159886 -0.03979,0.05718 -0.04717,0.07052 -0.06085,0.110533 -0.02904,0.08395 -0.03395,0.142297 -0.03395,0.142297 -0.02164,0.166005 -0.01539,0.325174 -0.0057,0.50237 -0.003,0.0011 -0.0058,-0.0087 -0.01104,-0.01767 -0.07393,-0.201097 -0.142297,-0.400499 -0.266859,-0.581218 -0.03268,-0.05355 -0.0776,-0.108377 -0.117,-0.154177 -0.08123,-0.100242 -0.187108,-0.153941 -0.306725,-0.173302 -0.165325,-0.02264 -0.320176,0.09718 -0.398116,0.236993 -0.135036,0.241561 -0.126944,0.506832 -0.125356,0.564238 0.0029,0.301835 0.08842,0.517647 0.09231,0.535421 0.07987,0.282026 0.194264,0.481731 0.194264,0.481731 0.02405,0.0433 0.0743,0.122518 0.140592,0.20855 0.175162,0.22708 0.409541,0.36926 0.653369,0.47205 0.308872,0.109962 0.633967,0.08421 0.633967,0.08421 l -0.01595,-0.398794 c -0.0061,-0.10691 -0.01256,-0.323631 -0.01256,-0.323631 l -0.05761,-1.051324 c 0.0011,-0.01879 -0.0011,-0.131822 -0.0011,-0.131822 0.0052,-0.07907 0.0052,-0.06871 0.01811,-0.149933 0.0014,-0.02553 0.01138,-0.05733 0.02438,-0.08296 0.01768,-0.03771 0.04247,-0.08339 0.0835,-0.101958 0.09458,-0.07148 0.228823,-0.0417 0.323365,0.01935 0.198376,0.131824 0.300924,0.292733 0.414412,0.483096 0.01518,0.02783 0.06781,0.131968 0.0858,0.179133 0.09651,0.250554 0.141397,0.521053 0.123962,0.822887 -0.009,0.178192 -0.04341,0.350024 -0.09639,0.51297 -0.03384,0.09022 -0.06197,0.147892 -0.101987,0.217505 -0.0925,0.163856 -0.212374,0.317082 -0.362308,0.437529 -0.167748,0.13492 -0.368168,0.224804 -0.5794,0.273819 -0.182307,0.0312 -0.381371,0.05151 -0.568441,0.0416 -0.128424,-0.01845 -0.261755,-0.02304 -0.389231,-0.06497 -0.07304,-0.02394 -0.144597,-0.0514 -0.214326,-0.08282 -0.422855,-0.159432 -0.758609,-0.577813 -0.758609,-0.577813 -0.144262,-0.166574 -0.231321,-0.368475 -0.231321,-0.368475 -0.131704,-0.265842 -0.205443,-0.564354 -0.23131,-0.880565 -0.01846,-0.277904 -0.007,-0.573349 0.04991,-0.84135 0.03921,-0.261146 0.155763,-0.491412 0.283393,-0.712923 0.03028,-0.04999 0.103459,-0.144574 0.152538,-0.202241 0.219819,-0.254535 0.508993,-0.433665 0.806605,-0.545903 0.04023,-0.009 0.07725,-0.0271 0.117941,-0.03599 0.07635,-0.02745 0.155878,-0.04833 0.238686,-0.06164 0.348892,-0.04579 0.44997,-0.04821 0.711232,-0.0055 0.129102,0.02088 0.402582,0.08467 0.720117,0.240322 l 0.120893,-0.252501" /></g></svg>